P3
3 20
255
 20  20  20  60  60  60  70  70  70 113 113 113 150 150 150 255 255 255  20  20  20  60  60  60  70  70  70 113 113 113 150 150 150 255 255 255  20  20  20  60  60  60  70  70  70 113 113 113 150 150 150 255 255 255  20  20  20  60  60  60 
 70  70  70 113 113 113 150 150 150 255 255 255  20  20  20  60  60  60  70  70  70 113 113 113 150 150 150 255 255 255  20  20  20  60  60  60  70  70  70 113 113 113 150 150 150 255 255 255  20  20  20  60  60  60  70  70  70 113 113 113 
150 150 150 255 255 255  20  20  20  60  60  60  70  70  70 113 113 113 150 150 150 255 255 255  20  20  20  60  60  60  70  70  70 113 113 113 150 150 150 255 255 255  20  20  20  60  60  60  70  70  70 113 113 113 150 150 150 255 255 255 
