P3
#
#
3 20
#




255
# The part above is the header
# "P3" means this is a RGB color image in ASCII
# "3 2" is the width and height of the image in pixels
# "255" is the maximum value for each color
# The part below is image data: RGB triplets


  1  20   1    10  60  10    70  50   1
  1 113 113   150 150 150   255   1  85 
  1  20   1    10  60  10    70  50   1
  1 113 113   150 150 150   255   1  85 
  1  20   1    10  60  10    70  50   1
  1 113 113   150 150 150   255   1  85 
  1  20   1    10  60  10    70  50   1
  1 113 113   150 150 150   255   1  85 
  1  20   1    10  60  10    70  50   1
  1 113 113   150 150 150   255   1  85 
  1  20   1    10  60  10    70  50   1
  1 113 113   150 150 150   255   1  85 
  1  20   1    10  60  10    70  50   1
  1 113 113   150 150 150   255   1  85 
  1  20   1    10  60  10    70  50   1
  1 113 113   150 150 150   255   1  85 
  1  20   1    10  60  10    70  50   1
  1 113 113   150 150 150   255   1  85 
  1  20   1    10  60  10    70  50   1
  1 113 113   150 150 150   255   1  85 